<?xml version="1.0" encoding="iso-8859-1"?>
<!-- Generator: Adobe Illustrator 17.1.0, SVG Export Plug-In . SVG Version: 6.00 Build 0)  -->
<!DOCTYPE svg PUBLIC "-//W3C//DTD SVG 1.1//EN" "http://www.w3.org/Graphics/SVG/1.1/DTD/svg11.dtd">
<svg xmlns="http://www.w3.org/2000/svg" xmlns:xlink="http://www.w3.org/1999/xlink" version="1.1" id="Capa_1" x="0px" y="0px" viewBox="0 0 207.126 207.126" style="enable-background:new 0 0 207.126 207.126;" xml:space="preserve" width="512px" height="512px">
<path d="M171.452,193.675c-7.482,0-13.569-6.087-13.569-13.569c0-2.801,0.853-5.406,2.313-7.569H94.068  c1.46,2.164,2.313,4.769,2.313,7.569c0,7.482-6.087,13.569-13.569,13.569s-13.569-6.087-13.569-13.569  c0-2.827,0.869-5.455,2.354-7.631c-6.71-0.604-12.359-5.587-13.705-12.292l-22.363-111.4c-0.001-0.007-0.003-0.014-0.004-0.021  l-3.876-19.616c-1.158-5.607-6.177-9.696-11.928-9.696H3c-1.657,0-3-1.343-3-3s1.343-3,3-3h16.72  c8.583,0,16.073,6.102,17.809,14.508l3.406,17.231h29.711c0.016,0,0.031,0,0.045,0h33.853c0.008,0,0.016,0,0.024,0h34.863  c0.008,0,0.016,0,0.024,0h33.853c0.015,0,0.03,0,0.045,0h30.773c0.895,0,1.743,0.399,2.313,1.09c0.57,0.69,0.802,1.599,0.632,2.478  l-4.419,22.945c-0.006,0.036-0.013,0.071-0.021,0.106l-4.593,23.846c-0.007,0.044-0.016,0.088-0.025,0.131l-9.032,46.891  c-0.272,1.412-1.508,2.433-2.946,2.433h-17.682c-0.011,0-0.023,0-0.036,0H75.682c-0.012,0-0.024,0-0.036,0h-14.66l2.789,13.894  c0.876,4.365,4.744,7.534,9.196,7.534h98.481c7.482,0,13.569,6.087,13.569,13.569S178.934,193.675,171.452,193.675z   M171.452,172.537c-4.174,0-7.569,3.396-7.569,7.569c0,4.173,3.396,7.569,7.569,7.569c4.173,0,7.569-3.396,7.569-7.569  C179.021,175.933,175.625,172.537,171.452,172.537z M82.812,172.537c-4.174,0-7.569,3.396-7.569,7.569  c0,4.173,3.396,7.569,7.569,7.569c4.173,0,7.569-3.396,7.569-7.569C90.381,175.933,86.985,172.537,82.812,172.537z M171.497,139.109  h12.061l3.273-16.995h-14.43L171.497,139.109z M140.509,139.109h24.979l0.905-16.995h-25.522L140.509,139.109z M109.492,139.109  h25.015l0.362-16.995h-25.74L109.492,139.109z M78.511,139.109h24.979l-0.362-16.995H77.606L78.511,139.109z M60.086,139.109h12.417  l-0.905-16.995h-14.98L60.086,139.109z M172.721,116.115h15.266l3.46-17.965h-17.77L172.721,116.115z M140.999,116.115h25.714  l0.957-17.965h-26.288L140.999,116.115z M109.002,116.115h25.995l0.383-17.965h-26.76L109.002,116.115z M77.287,116.115h25.714  l-0.383-17.965H76.331L77.287,116.115z M55.393,116.115h15.885l-0.957-17.965H51.727L55.393,116.115z M173.997,92.149h18.606  l3.46-17.965h-21.111L173.997,92.149z M141.509,92.149h26.479l0.957-17.965h-27.053L141.509,92.149z M108.492,92.149h27.015  l0.383-17.965h-27.781L108.492,92.149z M76.011,92.149h26.479l-0.383-17.965H75.055L76.011,92.149z M50.502,92.149h19.5  l-0.956-17.965h-22.21L50.502,92.149z M175.273,68.185h21.947l3.273-16.995h-24.315L175.273,68.185z M142.019,68.185h27.245  l0.905-16.995h-27.788L142.019,68.185z M107.981,68.185h28.037l0.362-16.995h-28.76L107.981,68.185z M74.735,68.185h27.245  l-0.362-16.995H73.831L74.735,68.185z M45.612,68.185h23.115L67.822,51.19H42.144L45.612,68.185z" fill="#e6bd19"/>
<g>
</g>
<g>
</g>
<g>
</g>
<g>
</g>
<g>
</g>
<g>
</g>
<g>
</g>
<g>
</g>
<g>
</g>
<g>
</g>
<g>
</g>
<g>
</g>
<g>
</g>
<g>
</g>
<g>
</g>
</svg>
