<?xml version="1.0" encoding="iso-8859-1"?>
<!-- Generator: Adobe Illustrator 16.0.0, SVG Export Plug-In . SVG Version: 6.00 Build 0)  -->
<!DOCTYPE svg PUBLIC "-//W3C//DTD SVG 1.1//EN" "http://www.w3.org/Graphics/SVG/1.1/DTD/svg11.dtd">
<svg xmlns="http://www.w3.org/2000/svg" xmlns:xlink="http://www.w3.org/1999/xlink" version="1.1" id="Capa_1" x="0px" y="0px" width="512px" height="512px" viewBox="0 0 432.425 432.425" style="enable-background:new 0 0 432.425 432.425;" xml:space="preserve">
<g>
	<path d="M224.651,122.903c7.656-3.961,12.95-11.863,12.95-21.081c0-13.155-10.656-23.814-23.816-23.814   c-13.154,0-23.814,10.66-23.814,23.814c0,9.248,5.324,17.171,13.023,21.119C177.084,337.95,100.756,417.283,99.965,418.093   c-3.271,3.285-3.267,8.591,0.011,11.863c3.283,3.291,8.602,3.291,11.885,0c1.369-1.368,14.827-15.231,32.129-45.702   c0.897,0.34,1.86,0.542,2.881,0.542h135.19c9.959,17.22,21.119,32.641,33.64,45.173c1.642,1.64,3.798,2.456,5.95,2.456   c2.148,0,4.305-0.816,5.948-2.456c3.281-3.285,3.281-8.604,0-11.887C259.164,349.649,232.288,182.765,224.651,122.903z    M213.882,166.474c5.244,31.974,13.326,72.433,25.279,113.123h-51.256C197.718,247.826,206.809,210.387,213.882,166.474z    M152.742,367.98c9.618-18.879,19.917-42.566,29.733-71.573h60.729c0.365,0,0.721-0.064,1.065-0.11   c7.983,24.867,17.478,49.38,28.719,71.684H152.742z M257.638,134.088v-5.603c17.636,0,31.991-14.356,31.991-31.995   c0-17.633-14.355-31.99-31.991-31.99v-5.603c20.722,0,37.595,16.865,37.595,37.593   C295.232,117.221,278.359,134.088,257.638,134.088z M274.744,35.059v-5.603c37.61,0,68.207,30.602,68.207,68.216   c0,37.609-30.597,68.209-68.207,68.209v-5.604c34.523,0,62.604-28.082,62.604-62.605C337.349,63.149,309.268,35.059,274.744,35.059   z M386.744,98.367c0,54.241-44.124,98.367-98.37,98.367v-5.603c51.154,0,92.767-41.618,92.767-92.764   c0-51.147-41.612-92.764-92.767-92.764V0C342.62,0,386.744,44.126,386.744,98.367z M142.797,97.19   c0,17.64,14.351,31.995,31.991,31.995v5.603c-20.727,0-37.594-16.867-37.594-37.598c0-20.728,16.867-37.593,37.594-37.593v5.604   C157.147,65.201,142.797,79.551,142.797,97.19z M157.681,30.156v5.604c-34.522,0-62.607,28.091-62.607,62.613   c0,34.523,28.085,62.605,62.607,62.605v5.603c-37.61,0-68.21-30.6-68.21-68.208C89.471,60.758,120.07,30.156,157.681,30.156z    M144.048,197.426c-54.241,0-98.367-44.126-98.367-98.365c0-54.24,44.126-98.367,98.367-98.367v5.603   c-51.148,0-92.765,41.618-92.765,92.765c0,51.147,41.617,92.762,92.765,92.762V197.426z" fill="#FFFFFF"/>
</g>
<g>
</g>
<g>
</g>
<g>
</g>
<g>
</g>
<g>
</g>
<g>
</g>
<g>
</g>
<g>
</g>
<g>
</g>
<g>
</g>
<g>
</g>
<g>
</g>
<g>
</g>
<g>
</g>
<g>
</g>
</svg>
